<svg xmlns="http://www.w3.org/2000/svg" viewBox="0 0 820 480" font-family="system-ui,sans-serif">
  <rect width="820" height="480" fill="#0f1117"/>
  <text x="410" y="38" text-anchor="middle" fill="#818cf8" font-size="18" font-weight="700">M1 — Genótipo e Alelo</text>
  <text x="410" y="58" text-anchor="middle" fill="#8892a4" font-size="12">Cada animal diploide carrega duas cópias do locus — uma de cada pai</text>
  <rect x="20" y="75" width="380" height="280" rx="10" fill="#1a1d27" stroke="#2a2d3a"/>
  <text x="210" y="100" text-anchor="middle" fill="#fcd34d" font-size="13" font-weight="600" letter-spacing="1">LOCUS — DUAS CÓPIAS</text>
  <text x="50" y="138" fill="#8892a4" font-size="11">Égua AA</text>
  <circle cx="130" cy="160" r="26" fill="#064e3b" stroke="#6ee7b7" stroke-width="2"/>
  <text x="130" y="165" text-anchor="middle" fill="#6ee7b7" font-size="18" font-weight="700">A</text>
  <circle cx="195" cy="160" r="26" fill="#064e3b" stroke="#6ee7b7" stroke-width="2"/>
  <text x="195" y="165" text-anchor="middle" fill="#6ee7b7" font-size="18" font-weight="700">A</text>
  <text x="240" y="165" fill="#6ee7b7" font-size="12" font-weight="600">→ 2 cópias A</text>
  <text x="50" y="215" fill="#8892a4" font-size="11">Égua Aa</text>
  <circle cx="130" cy="237" r="26" fill="#064e3b" stroke="#6ee7b7" stroke-width="2"/>
  <text x="130" y="242" text-anchor="middle" fill="#6ee7b7" font-size="18" font-weight="700">A</text>
  <circle cx="195" cy="237" r="26" fill="#831843" stroke="#f9a8d4" stroke-width="2"/>
  <text x="195" y="242" text-anchor="middle" fill="#f9a8d4" font-size="18" font-weight="700">a</text>
  <text x="240" y="235" fill="#6ee7b7" font-size="12" font-weight="600">→ 1 cópia A</text>
  <text x="240" y="249" fill="#f9a8d4" font-size="12" font-weight="600">→ 1 cópia a</text>
  <text x="50" y="292" fill="#8892a4" font-size="11">Égua aa</text>
  <circle cx="130" cy="314" r="26" fill="#831843" stroke="#f9a8d4" stroke-width="2"/>
  <text x="130" y="319" text-anchor="middle" fill="#f9a8d4" font-size="18" font-weight="700">a</text>
  <circle cx="195" cy="314" r="26" fill="#831843" stroke="#f9a8d4" stroke-width="2"/>
  <text x="195" y="319" text-anchor="middle" fill="#f9a8d4" font-size="18" font-weight="700">a</text>
  <text x="240" y="319" fill="#f9a8d4" font-size="12" font-weight="600">→ 2 cópias a</text>
  <circle cx="50" cy="365" r="9" fill="#064e3b" stroke="#6ee7b7" stroke-width="1.5"/>
  <text x="65" y="370" fill="#6ee7b7" font-size="11">Alelo A (dominante)</text>
  <circle cx="50" cy="385" r="9" fill="#831843" stroke="#f9a8d4" stroke-width="1.5"/>
  <text x="65" y="390" fill="#f9a8d4" font-size="11">Alelo a (recessivo)</text>
  <rect x="420" y="75" width="380" height="280" rx="10" fill="#1a1d27" stroke="#2a2d3a"/>
  <text x="610" y="100" text-anchor="middle" fill="#fcd34d" font-size="13" font-weight="600" letter-spacing="1">CRUZAMENTO Aa × Aa</text>
  <text x="610" y="115" text-anchor="middle" fill="#8892a4" font-size="10">Quadrado de Punnett — proporções esperadas</text>
  <text x="545" y="152" text-anchor="middle" fill="#6ee7b7" font-size="16" font-weight="700">A</text>
  <text x="620" y="152" text-anchor="middle" fill="#f9a8d4" font-size="16" font-weight="700">a</text>
  <text x="490" y="195" text-anchor="middle" fill="#6ee7b7" font-size="16" font-weight="700">A</text>
  <text x="490" y="257" text-anchor="middle" fill="#f9a8d4" font-size="16" font-weight="700">a</text>
  <rect x="505" y="160" width="75" height="55" fill="#064e3b" stroke="#2a2d3a"/>
  <text x="542" y="192" text-anchor="middle" fill="#6ee7b7" font-size="15" font-weight="700">AA</text>
  <rect x="580" y="160" width="75" height="55" fill="rgba(124,58,237,0.2)" stroke="#2a2d3a"/>
  <text x="617" y="192" text-anchor="middle" fill="#c4b5fd" font-size="15" font-weight="700">Aa</text>
  <rect x="505" y="215" width="75" height="55" fill="rgba(124,58,237,0.2)" stroke="#2a2d3a"/>
  <text x="542" y="247" text-anchor="middle" fill="#c4b5fd" font-size="15" font-weight="700">aA</text>
  <rect x="580" y="215" width="75" height="55" fill="#831843" stroke="#2a2d3a"/>
  <text x="617" y="247" text-anchor="middle" fill="#f9a8d4" font-size="15" font-weight="700">aa</text>
  <text x="680" y="183" fill="#6ee7b7" font-size="13" font-weight="600">25% AA</text>
  <text x="680" y="230" fill="#c4b5fd" font-size="13" font-weight="600">50% Aa</text>
  <text x="680" y="255" fill="#f9a8d4" font-size="13" font-weight="600">25% aa</text>
  <rect x="430" y="295" width="90" height="22" rx="3" fill="#059669"/>
  <text x="475" y="311" text-anchor="middle" fill="#fff" font-size="11" font-weight="700">1 AA</text>
  <rect x="522" y="295" width="180" height="22" rx="3" fill="#7c3aed"/>
  <text x="612" y="311" text-anchor="middle" fill="#fff" font-size="11" font-weight="700">2 Aa</text>
  <rect x="704" y="295" width="90" height="22" rx="3" fill="#be185d"/>
  <text x="749" y="311" text-anchor="middle" fill="#fff" font-size="11" font-weight="700">1 aa</text>
  <text x="610" y="345" text-anchor="middle" fill="#8892a4" font-size="11">proporção 1 : 2 : 1</text>
  <rect x="20" y="375" width="780" height="46" rx="8" fill="#12141e" stroke="#2a2d3a"/>
  <text x="410" y="395" text-anchor="middle" fill="#fcd34d" font-size="12" font-weight="600">Ponto-chave</text>
  <text x="410" y="413" text-anchor="middle" fill="#e2e8f0" font-size="11">Alelo é uma versão do gene. Genótipo é o par de alelos. Animal ≠ alelo.</text>
  <text x="410" y="460" text-anchor="middle" fill="#3d4252" font-size="10">MGenética · Falconer &amp; Mackay (1996) · Griffiths et al. (2016)</text>
</svg>
